<svg width="1440" height="1662" viewBox="0 0 1440 1662" fill="none" xmlns="http://www.w3.org/2000/svg">
<g clip-path="url(#clip0)">
<path d="M361.509 928.721C393.003 896.284 433.172 873.902 472.74 851.988C499.547 837.115 527.226 822.018 557.665 818.643C606.08 813.301 654.062 839.616 685.06 877.227C716.058 914.839 732.366 962.306 743.569 1009.71C771.937 1130.41 770.797 1256.17 740.247 1376.33C720.996 1451.67 689.03 1525.87 634.004 1580.81C578.977 1635.75 497.912 1668.54 421.997 1651.81C368.486 1640.02 322.658 1605.59 283.752 1566.97C247.888 1531.74 216.971 1491.81 191.846 1448.27C180.254 1427.92 169.895 1405.83 169.782 1382.4C169.642 1359.92 179.098 1338.14 179.904 1315.6C180.711 1293.06 172.778 1270.78 172.028 1248.06C171.439 1220.77 176.297 1193.63 186.316 1168.23C196.173 1144.06 211.982 1122.78 232.272 1106.36C248.214 1093.12 269.718 1087.47 283.17 1071.02C317.683 1028.82 320.833 970.619 361.509 928.721Z" fill="#EBFF00"/>
<path d="M165.922 960.737C155.165 955.176 143.222 952.3 131.112 952.355C101.994 953.549 78.3849 979.949 72.5924 1008.5C68.0229 1031.13 72.4672 1054.52 76.8883 1077.17L95.1184 1170.44C101.585 1203.62 108.183 1237.18 122.309 1267.88C126.461 1276.94 136.861 1287.1 144.569 1280.8C146.718 1278.75 148.216 1276.11 148.876 1273.21C154.749 1254.03 151.137 1233.35 152.925 1213.34C155.56 1184.33 169.574 1158.6 187.248 1136.02C203.502 1115.3 236.345 1096.56 239.933 1071.39C246.085 1027.84 201.619 977.705 165.922 960.737Z" fill="black"/>
<path d="M741.9 1268.97C759.635 1240.54 728.699 1189.22 672.802 1154.35C616.904 1119.49 557.212 1114.27 539.477 1142.7C521.741 1171.14 552.677 1222.45 608.575 1257.32C664.472 1292.19 724.164 1297.4 741.9 1268.97Z" fill="black"/>
<path d="M705.475 1246.25C716.828 1228.06 697.03 1195.21 661.256 1172.9C625.482 1150.58 587.279 1147.25 575.926 1165.45C564.574 1183.64 584.372 1216.49 620.146 1238.8C655.919 1261.12 694.123 1264.45 705.475 1246.25Z" fill="white"/>
<path d="M590.014 1208.37C600.671 1212.49 612.65 1207.19 616.77 1196.53C620.889 1185.88 615.59 1173.9 604.933 1169.78C594.276 1165.66 582.297 1170.96 578.177 1181.62C574.058 1192.27 579.357 1204.25 590.014 1208.37Z" fill="black"/>
<path d="M613.107 1077.52C632.933 1075.34 654.184 1076.8 670.849 1087.73C684.26 1096.56 693.444 1110.74 701.328 1124.94C702.589 1127.77 704.518 1130.25 706.948 1132.16C708.199 1133.07 709.741 1133.49 711.281 1133.35C712.821 1133.2 714.254 1132.49 715.308 1131.36C716.26 1129.69 716.626 1127.74 716.346 1125.84C715.714 1110.7 710.926 1096.02 702.508 1083.41C694.09 1070.81 682.365 1060.76 668.619 1054.38C654.872 1047.99 639.633 1045.51 624.572 1047.21C609.51 1048.91 595.205 1054.72 583.225 1064.01C561.313 1080.94 604.735 1078.43 613.107 1077.52Z" fill="#D597C3"/>
<path d="M628.024 1030.49C647.858 1028.29 669.134 1029.76 685.766 1040.7C699.186 1049.51 708.37 1063.69 716.253 1077.89C717.515 1080.72 719.444 1083.2 721.874 1085.11C723.125 1086.02 724.667 1086.44 726.207 1086.3C727.747 1086.15 729.18 1085.44 730.234 1084.31C731.179 1082.64 731.553 1080.7 731.296 1078.8C730.655 1063.66 725.862 1048.99 717.442 1036.39C709.022 1023.79 697.299 1013.75 683.556 1007.37C669.813 1000.98 654.579 998.502 639.52 1000.19C624.461 1001.89 610.158 1007.69 598.176 1016.97C576.239 1033.89 619.651 1031.41 628.024 1030.49Z" fill="#D597C3"/>
<path d="M441.473 947.911C461.308 945.708 482.584 947.175 499.215 958.119C512.635 966.924 521.82 981.101 529.703 995.309C530.964 998.135 532.893 1000.61 535.324 1002.53C536.575 1003.44 538.116 1003.86 539.656 1003.71C541.196 1003.56 542.629 1002.86 543.683 1001.72C544.629 1000.05 545.002 998.119 544.746 996.217C544.104 981.077 539.311 966.405 530.891 953.806C522.471 941.207 510.748 931.167 497.005 924.783C483.262 918.399 468.028 915.918 452.969 917.611C437.911 919.304 423.608 925.106 411.625 934.382C389.689 951.306 433.101 948.824 441.473 947.911Z" fill="#D597C3"/>
<path d="M520.114 1254.67C519.546 1257.42 518.263 1259.96 516.397 1262.04C515.452 1263.07 514.239 1263.81 512.895 1264.19C511.55 1264.57 510.128 1264.56 508.786 1264.18C507.59 1263.61 506.524 1262.8 505.657 1261.79C504.789 1260.79 504.138 1259.62 503.745 1258.36C500.46 1250.25 501.484 1241 504.048 1232.62C506.476 1224.02 509.706 1215.66 513.695 1207.67C515.74 1214.34 517.622 1221.66 519.31 1228.54C521.733 1237.05 522.009 1246.03 520.114 1254.67Z" fill="black"/>
<path d="M118.182 1081.14C117.857 1061.16 119.762 1040.78 130.432 1024.86C138.586 1012.62 155.394 1003.3 171.549 1010.47C179.032 1014.19 185.249 1020.04 189.419 1027.28C200.685 1045.43 201.703 1067.38 192.004 1083.26C184.491 1095.44 171.691 1103.67 161.744 1114.1C146.125 1130.5 141.265 1149.82 137.862 1171.75C118.331 1163.66 118.495 1096.79 118.182 1081.14Z" fill="white"/>
<path d="M217.924 1243.99C230.963 1275.98 256.206 1301.13 280.806 1325.33C281.897 1326.42 283.65 1328.06 285.701 1329.86C287.348 1331.3 289.293 1332.36 291.397 1332.97C293.502 1333.57 295.714 1333.71 297.876 1333.36C300.038 1333.01 302.096 1332.19 303.904 1330.96C305.712 1329.72 307.226 1328.1 308.336 1326.21C313.289 1317.75 319.384 1307.72 322.599 1303.46C333.358 1289.34 339.063 1284.59 338.796 1271.65C338.618 1264.62 336.846 1257.72 333.612 1251.47L295.453 1176.1C290.607 1166.31 283.562 1157.77 274.87 1151.15C217.966 1108.6 203.884 1209.51 217.924 1243.99Z" fill="#ED603C"/>
<path d="M415.625 1526.38C489.55 1554.95 567.122 1532.48 588.887 1476.17C610.652 1419.87 568.368 1351.06 494.443 1322.49C420.518 1293.91 342.946 1316.38 321.181 1372.69C299.416 1428.99 341.7 1497.8 415.625 1526.38Z" fill="#D597C3"/>
<path d="M516.806 1289.48C542.86 1300.42 565.676 1316.11 581.82 1339.49C584.407 1343.09 586.782 1346.82 588.969 1350.66C600.611 1371.06 606.742 1394.13 606.76 1417.61C606.778 1441.09 600.682 1464.17 589.071 1484.58C577.46 1504.99 560.735 1522.03 540.542 1534.02C520.348 1546 497.382 1552.52 473.904 1552.93C469.674 1553.87 465.393 1554.56 461.081 1554.99C456.842 1555.45 452.58 1555.68 448.315 1555.66C436.855 1556.22 425.412 1554.24 414.807 1549.86C411.247 1548.45 407.77 1546.83 404.396 1545.02C388.806 1535.85 372.121 1528.69 354.738 1523.69C315.076 1512.48 322.796 1460.45 315.859 1426.9C315.365 1422.44 315.004 1418.16 314.908 1413.69C314.098 1377.14 327.834 1341.76 353.096 1315.34C356.142 1312.17 359.346 1309.16 362.695 1306.32C372.375 1296.66 385.825 1286.74 400.044 1289.49C406.782 1290.27 413.183 1292.86 418.568 1296.99C437.309 1317.64 462.29 1295.66 481.302 1287.03C488.383 1284.29 496.067 1283.5 503.559 1284.73L516.806 1289.48ZM437.624 1507.59C456.825 1505.14 473.623 1493.75 492.889 1495.7C498.022 1496.42 503.102 1496.84 507.997 1497.16C547.46 1499.24 579.458 1487.19 588.87 1462.84C594.688 1447.79 590.778 1430.27 579.554 1413.17C577.224 1409.63 574.691 1406.23 571.971 1402.98C567.097 1397.81 562.045 1393.11 555.606 1391.99C542.366 1390.2 529.55 1386.08 517.754 1379.8C513.972 1377.84 510.314 1375.69 506.719 1373.46C465.929 1364.23 427.248 1357.52 393.504 1332.67C389.931 1332.13 386.32 1331.89 382.708 1331.94C378.877 1332.18 375.15 1332.61 371.528 1333.23C364.832 1334.97 358.462 1337.78 352.663 1341.56C346.885 1345.33 342.017 1350.35 338.408 1356.23C333.731 1363.79 331.07 1372.43 330.68 1381.31C330.29 1390.19 332.184 1399.03 336.181 1406.97C337.691 1410.19 339.37 1413.33 341.211 1416.37C356.198 1452.53 392.114 1473.28 417.223 1501.61C420.392 1503.96 423.991 1505.66 427.817 1506.63C431.042 1507.3 434.33 1507.62 437.624 1507.59V1507.59Z" fill="black"/>
<path d="M418.945 1381.76C418.418 1382.78 418.197 1383.93 418.309 1385.07C418.578 1385.84 418.995 1386.54 419.536 1387.15C420.077 1387.75 420.732 1388.24 421.463 1388.59C434.26 1396.81 447.692 1404 461.633 1410.09C467.408 1394.72 472.584 1379.08 477.145 1363.29C477.792 1361.96 477.939 1360.45 477.557 1359.02C477.175 1357.6 476.292 1356.36 475.069 1355.53C468.948 1349.6 461.739 1343.23 453.15 1343.47C433.801 1343.98 424.882 1366.84 418.945 1381.76Z" fill="white"/>
<path d="M514.475 1418.69C514.159 1419.8 513.541 1420.79 512.692 1421.57C511.98 1421.95 511.197 1422.2 510.39 1422.28C509.583 1422.36 508.768 1422.28 507.992 1422.05C492.99 1419.53 478.214 1415.81 463.805 1410.94C469.873 1395.68 476.561 1380.62 483.83 1365.88C484.355 1364.51 485.245 1363.31 486.403 1362.42C487.689 1361.74 489.136 1361.44 490.584 1361.54C499.1 1361.27 508.699 1361.39 514.893 1367.35C528.892 1380.75 520.095 1403.65 514.475 1418.69Z" fill="white"/>
<path d="M522.566 1399.64C522.921 1395.38 523.722 1391.17 524.955 1387.07C525.598 1385.03 526.806 1383.21 528.439 1381.82C530.072 1380.43 532.063 1379.53 534.184 1379.23C537.064 1379.27 539.824 1380.38 541.919 1382.36C544.719 1384.95 546.96 1388.09 548.504 1391.58C550.048 1395.07 550.862 1398.84 550.898 1402.65C550.905 1410.29 549.678 1417.87 547.264 1425.11C547.037 1426.3 546.483 1427.41 545.664 1428.31C544.904 1428.9 544 1429.29 543.044 1429.42C538.521 1429.99 533.928 1429.38 529.706 1427.66C526.493 1426.62 520.33 1425.8 517.874 1423.45C514.985 1420.62 517.004 1417.51 518.273 1414.3C520.215 1409.57 521.654 1404.66 522.566 1399.64V1399.64Z" fill="white"/>
<path d="M410.153 1341.74C412.889 1339.15 416.165 1337.19 419.747 1336C421.544 1335.44 423.441 1335.27 425.309 1335.51C427.177 1335.75 428.971 1336.39 430.57 1337.38C431.345 1337.87 432.012 1338.52 432.529 1339.28C433.046 1340.04 433.401 1340.9 433.574 1341.8C433.639 1343.51 433.253 1345.21 432.456 1346.72C427.737 1357.77 422.388 1368.49 417.078 1379.25C416.766 1380 416.303 1380.68 415.717 1381.24C414.896 1381.73 413.966 1382 413.013 1382.04C412.06 1382.07 411.113 1381.86 410.26 1381.43C404.963 1379.96 400.349 1376.68 397.218 1372.16C390.842 1361.81 402.764 1348.31 410.153 1341.74Z" fill="white"/>
<path d="M387.471 1431.68C388.48 1429.12 390.226 1426.93 392.488 1425.37C396.069 1423.36 400.462 1424.47 404.315 1425.82C408.207 1427.2 412.027 1428.77 415.76 1430.53C417.965 1431.35 419.9 1432.77 421.354 1434.63C423.41 1437.72 422.637 1441.82 421.64 1445.42C418.238 1457.73 413.356 1469.58 407.1 1480.71C406.561 1481.92 405.678 1482.94 404.56 1483.65C401.988 1485.01 399.024 1482.89 396.883 1480.88C390.294 1474.72 381.693 1469.4 380.144 1460.64C378.595 1451.88 383.701 1439.47 387.471 1431.68Z" fill="white"/>
<path d="M424.956 1444.8C425.426 1443.54 426.082 1442.35 426.902 1441.29C428.035 1440.17 429.449 1439.37 430.995 1438.98C432.541 1438.59 434.162 1438.63 435.691 1439.08C438.731 1440.03 441.57 1441.54 444.068 1443.52C445.434 1444.3 446.556 1445.44 447.307 1446.82C447.887 1448.87 447.68 1451.06 446.728 1452.96L432.079 1494.26C430.721 1497.78 429.183 1501.75 425.696 1503.01C422.209 1504.27 417.389 1502.02 414.454 1498.95C412.276 1496.68 406.693 1492.33 406.36 1489.2C405.963 1485.51 410.217 1479.22 411.68 1475.95L424.956 1444.8Z" fill="white"/>
<path d="M471.755 1465.99C472.224 1464.83 472.492 1463.6 472.548 1462.35C472.387 1460.81 471.825 1459.33 470.918 1458.08C470.011 1456.82 468.791 1455.83 467.379 1455.19C464.493 1453.87 461.404 1453.06 458.245 1452.78C456.74 1452.42 455.169 1452.46 453.685 1452.9C451.946 1453.88 450.662 1455.51 450.11 1457.43L434.38 1494.78C433.126 1498.03 431.702 1501.71 433.449 1504.88C435.195 1508.05 439.976 1506.93 444.166 1506.75C448.309 1505.95 452.298 1504.49 455.986 1502.43C457.325 1501.76 458.502 1500.8 459.439 1499.63C460.376 1498.46 461.049 1497.1 461.415 1495.64L471.755 1465.99Z" fill="white"/>
<path d="M468.856 1482.93L474.487 1466.77C474.786 1465.65 475.315 1464.6 476.039 1463.7C477.564 1462.4 479.526 1461.74 481.525 1461.84C484.026 1461.74 486.53 1461.87 489.009 1462.21C492.785 1462.74 496.979 1464.22 498.428 1467.73C499.196 1470.36 499.092 1473.17 498.133 1475.74C496.577 1481.87 494.963 1488.01 493.285 1494.09C493.2 1494.71 492.971 1495.3 492.616 1495.82C491.594 1496.94 489.813 1496.61 488.328 1496.32C481.182 1494.93 475.041 1497.33 468.297 1499.18C464.134 1500.37 465.159 1497.07 465.767 1493.82C466.517 1490.12 467.55 1486.48 468.856 1482.93V1482.93Z" fill="white"/>
<path d="M859.661 901.934L693.257 917.857L732.908 981.246L859.661 901.934Z" fill="black"/>
<path d="M780.558 775.491L693.442 918.158L653.79 854.769L780.558 775.491Z" fill="black"/>
<path d="M476.312 1149.02C472.051 1114.21 458.882 1041.79 454.113 1013.87L405.945 1004.14C382.894 1021.7 359.851 1039.26 336.816 1056.83C340.296 1095.11 346.467 1133.1 355.284 1170.52L476.312 1149.02Z" fill="black"/>
<path d="M311.418 1095.88C311.677 1069.01 321.243 1043.06 338.487 1022.45C348.917 1010.81 360.954 1000.73 374.235 992.498C394.282 979.301 417.022 967.623 437.895 972.383C445.505 974.318 452.603 977.885 458.697 982.836C483.286 1001.85 497.04 1035.54 499.439 1071.04C501.839 1106.54 493.776 1143.72 480.554 1178.28C474.727 1193.36 467.789 1208.62 456.869 1219.82C435.204 1242.07 402.731 1242.58 379.901 1228.6C345.853 1207.72 311.462 1143.06 311.418 1095.88Z" stroke="#1D1D1B" stroke-width="2" stroke-miterlimit="10"/>
<path d="M781.452 1141.5C805.637 1108.24 853.305 1087.76 888.752 1108.72C916.746 1125.28 927.522 1162.54 921.248 1194.49C914.975 1226.44 894.902 1253.86 872.935 1277.79C856.505 1295.75 837.885 1313.83 832.647 1337.71C829.671 1351.24 821.848 1377.25 821.848 1377.25C821.848 1377.25 805.004 1387.77 795.063 1389.63C781.614 1392.31 765.878 1393.43 755.945 1383.89C745.526 1373.91 746.492 1357.19 748.27 1342.89C753.133 1303.51 761.144 1263.18 763.027 1223.53C764.391 1194.77 759.985 1165.34 781.452 1141.5Z" fill="#ED603C"/>
<path d="M876.665 1199.31C880.088 1186.59 881.337 1156.97 873.195 1146.64C865.052 1136.31 838.926 1132.37 826.652 1137.23C815.916 1141.41 805.352 1157.27 799.595 1167.34C793.933 1177.61 790.36 1188.93 789.082 1200.64C787.569 1212.58 795.779 1231.05 797.376 1243.02C800.769 1268.32 789.21 1296.49 787.608 1313.93L792.018 1315.88C798.772 1306.34 822.263 1266.86 841.513 1249.16C855.788 1235.72 871.531 1218.39 876.665 1199.31Z" fill="white"/>
<path d="M822.233 1231.99C808.019 1236.26 793.037 1228.2 788.769 1213.98C784.502 1199.77 792.565 1184.79 806.779 1180.52C820.993 1176.25 835.975 1184.31 840.242 1198.53C844.51 1212.74 836.447 1227.72 822.233 1231.99Z" fill="black"/>
<path d="M725.856 393.758C711.369 353.95 702.35 310.269 712.021 268.978C722.705 223.415 755.192 186.358 791.301 158.275C914.768 62.3373 1095.06 54.9547 1225.48 140.47C1241.8 150.763 1257.25 162.357 1271.7 175.139C1291.35 193.303 1307.62 214.807 1319.76 238.651C1331.67 262.138 1338.48 308.894 1311.25 365.965C1349.19 446.34 1392.19 524.231 1440 599.168L1300.63 658.554C1300.63 658.554 1301.03 807.509 1259.74 864.073C1234.39 898.706 1186.26 907.753 1145.98 896.317C1105.71 884.881 1071.92 856.726 1040.77 827.775C973.767 765.421 928.495 693.115 870.003 624.03C811.511 554.945 757.112 480.612 725.856 393.758Z" fill="#2FAD74"/>
<path d="M1244.96 617.538C1236.99 615.11 1229.56 611.148 1223.08 605.868C1214.72 598.147 1209.45 587.592 1208.26 576.199C1207.07 564.807 1210.04 553.368 1216.62 544.048C1224.73 534.117 1235.78 527.097 1248.14 524.032C1262.66 520.098 1277.95 519.99 1292.53 523.72C1307.11 527.449 1320.5 534.892 1331.44 545.341C1341.6 554.686 1348.35 567.23 1350.59 580.941C1351.59 587.776 1350.76 594.755 1348.19 601.157C1345.63 607.559 1341.42 613.15 1336 617.354C1314.59 632.125 1267.65 625.072 1244.96 617.538Z" fill="#ED603C"/>
<path d="M1289.79 615.375C1283.61 614.545 1277.61 612.775 1272.02 610.131C1266.38 607.459 1261.98 602.888 1259.65 597.296C1259.18 596.345 1258.96 595.296 1259.01 594.243C1259.06 593.19 1259.38 592.165 1259.94 591.258C1261.05 590.167 1262.51 589.473 1264.09 589.292C1270.75 588.475 1277.52 589.38 1283.7 591.914C1291.05 594.475 1298.12 597.734 1304.79 601.644C1310.49 605.094 1318.31 610.097 1311.1 614.823C1305.26 618.688 1296.21 616.445 1289.79 615.375Z" fill="black"/>
<path d="M1255.96 424.496C1261.91 393.355 1217.13 358.629 1155.93 346.933C1094.73 335.236 1040.3 351 1034.35 382.141C1028.4 413.282 1073.18 448.009 1134.38 459.705C1195.57 471.401 1250.01 455.638 1255.96 424.496Z" fill="black"/>
<path d="M765.828 421.961C773.785 425.357 781.936 428.283 790.238 430.723C800.83 433.736 810.417 439.529 817.998 447.497C840.938 471.363 862.443 492.671 877.007 523.799C884.254 539.345 890.682 555.779 890.989 572.894C891.297 590.009 884.87 608.147 870.819 617.966C858.237 626.762 841.861 627.819 828.118 634.603C789.554 653.696 786.511 706.2 768.494 744.999C763.674 755.431 756.46 766.069 745.315 769.103C734.17 772.137 723.093 766.955 713.349 761.296C676.183 739.66 645.284 708.776 623.674 671.663C614.238 655.401 606.58 637.57 606.033 618.818C604.734 574.837 641.725 525.674 661.896 487.693C686.341 441.326 714.546 411.937 765.828 421.961Z" stroke="black" stroke-width="2" stroke-miterlimit="10"/>
<path d="M1216.08 416.875C1219.89 396.943 1191.23 374.716 1152.05 367.229C1112.88 359.742 1078.04 369.831 1074.23 389.763C1070.42 409.695 1099.08 431.922 1138.26 439.409C1177.43 446.896 1212.28 436.807 1216.08 416.875Z" fill="white"/>
<path d="M1362.26 1289.72L1391.34 1268.82L1378.24 1302.13L1414.06 1302.28L1383.87 1321.56L1412.75 1342.71L1377.01 1340.58L1387.92 1374.65L1360.26 1351.94L1349.03 1385.9L1340.01 1351.28L1310.94 1372.18L1324.04 1338.87L1288.2 1338.72L1318.4 1319.44L1289.5 1298.28L1325.26 1300.44L1314.36 1266.35L1342.01 1289.08L1353.25 1255.09L1362.26 1289.72Z" fill="#2FAD74"/>
<path d="M1214.66 1075.48C1220.2 1095.67 1224.56 1116.16 1227.72 1136.86C1228.21 1140.06 1228.64 1143.51 1227.16 1146.41C1224.38 1151.82 1216.98 1152.23 1210.91 1152.23C1139.72 1151 1069.93 1172.16 1011.44 1212.72C985.417 1230.87 959.744 1258.78 965.516 1289.93C1093.19 1273.78 1220.43 1254.87 1347.24 1233.19L1308.78 1075.48" fill="black"/>
<path d="M1090.52 1127.17C1090.12 1124.2 1090.81 1121.18 1092.47 1118.67C1093.69 1117.16 1095.24 1115.93 1096.99 1115.08C1098.74 1114.23 1100.66 1113.77 1102.61 1113.74C1109.57 1113.55 1114.5 1117.99 1117.57 1122.03C1122.94 1129.08 1143.95 1164.38 1125.15 1164.5C1104.55 1164.64 1091.22 1136.78 1090.52 1127.17Z" stroke="#1D1D1B" stroke-width="2.09" stroke-miterlimit="10"/>
<path d="M1166.61 1113.47C1166.12 1110.51 1164.57 1107.83 1162.26 1105.92C1160.63 1104.83 1158.78 1104.11 1156.84 1103.82C1154.9 1103.53 1152.92 1103.67 1151.04 1104.23C1144.34 1106.17 1140.94 1111.78 1139.21 1116.56C1136.18 1124.86 1126.54 1164.81 1144.53 1159.38C1164.26 1153.42 1168.79 1122.88 1166.61 1113.47Z" stroke="#1D1D1B" stroke-width="2.09" stroke-miterlimit="10"/>
</g>
<defs>
<clipPath id="clip0">
<rect width="1440" height="1662" fill="white"/>
</clipPath>
</defs>
</svg>
