<svg width="1703" height="1927" viewBox="0 0 1703 1927" fill="none" xmlns="http://www.w3.org/2000/svg">
<path d="M440.04 992.575C476.916 954.595 523.949 928.389 570.278 902.731C601.666 885.316 634.075 867.64 669.714 863.688C726.403 857.432 782.584 888.245 818.878 932.283C855.173 976.321 874.268 1031.9 887.385 1087.4C920.6 1228.72 919.266 1375.97 883.495 1516.68C860.955 1604.88 823.527 1691.76 759.098 1756.09C694.668 1820.42 599.751 1858.81 510.864 1839.23C448.21 1825.41 394.551 1785.1 348.996 1739.88C307.004 1698.64 270.804 1651.89 241.387 1600.91C227.813 1577.08 215.684 1551.21 215.552 1523.78C215.388 1497.45 226.46 1471.95 227.404 1445.56C228.348 1419.17 219.059 1393.09 218.181 1366.48C217.492 1334.52 223.18 1302.75 234.911 1273.01C246.452 1244.71 264.962 1219.79 288.72 1200.57C307.386 1185.07 332.564 1178.45 348.315 1159.19C388.726 1109.78 392.414 1041.63 440.04 992.575Z" fill="#EBFF00"/>
<path d="M885.429 1390.96C906.196 1357.67 869.973 1297.59 804.524 1256.76C739.075 1215.94 669.184 1209.83 648.417 1243.12C627.651 1276.41 663.873 1336.5 729.322 1377.32C794.771 1418.15 864.663 1424.25 885.429 1390.96Z" fill="black"/>
<path d="M842.783 1364.37C856.075 1343.06 832.895 1304.6 791.008 1278.47C749.121 1252.35 704.389 1248.44 691.097 1269.75C677.805 1291.06 700.985 1329.51 742.872 1355.64C784.759 1381.77 829.49 1385.68 842.783 1364.37Z" fill="white"/>
<path d="M734.631 1166.8C757.844 1164.25 782.727 1165.96 802.24 1178.75C817.942 1189.09 828.696 1205.69 837.926 1222.33C839.403 1225.64 841.661 1228.54 844.507 1230.78C845.972 1231.85 847.777 1232.34 849.58 1232.17C851.384 1231.99 853.061 1231.16 854.295 1229.84C855.41 1227.88 855.838 1225.61 855.511 1223.38C854.77 1205.65 849.165 1188.46 839.308 1173.7C829.451 1158.94 815.723 1147.18 799.628 1139.71C783.532 1132.23 765.69 1129.33 748.054 1131.32C730.419 1133.3 713.67 1140.11 699.643 1150.98C673.987 1170.81 724.828 1167.87 734.631 1166.8Z" fill="#D597C3"/>
<path d="M752.098 1111.74C775.322 1109.16 800.233 1110.88 819.706 1123.69C835.42 1134 846.174 1150.6 855.404 1167.24C856.881 1170.55 859.139 1173.45 861.985 1175.69C863.45 1176.76 865.255 1177.25 867.058 1177.08C868.862 1176.9 870.539 1176.07 871.773 1174.75C872.88 1172.79 873.317 1170.53 873.017 1168.3C872.266 1150.57 866.654 1133.39 856.795 1118.64C846.937 1103.89 833.211 1092.13 817.119 1084.66C801.028 1077.19 783.19 1074.28 765.558 1076.26C747.927 1078.25 731.18 1085.04 717.149 1095.9C691.465 1115.72 742.295 1112.81 752.098 1111.74Z" fill="#D597C3"/>
<path d="M533.664 1015.04C556.888 1012.46 581.8 1014.18 601.273 1027C616.986 1037.31 627.74 1053.91 636.97 1070.54C638.447 1073.85 640.706 1076.75 643.552 1078.99C645.016 1080.06 646.821 1080.55 648.624 1080.38C650.428 1080.21 652.105 1079.38 653.339 1078.05C654.447 1076.1 654.884 1073.83 654.584 1071.6C653.832 1053.88 648.221 1036.7 638.362 1021.95C628.503 1007.19 614.777 995.439 598.686 987.964C582.594 980.489 564.757 977.584 547.125 979.567C529.493 981.549 512.746 988.342 498.716 999.203C473.031 1019.02 523.861 1016.11 533.664 1015.04Z" fill="#D597C3"/>
<path d="M625.746 1374.23C625.081 1377.43 623.58 1380.41 621.394 1382.85C620.288 1384.06 618.868 1384.93 617.294 1385.37C615.72 1385.81 614.054 1385.8 612.483 1385.35C611.082 1384.68 609.835 1383.73 608.819 1382.56C607.803 1381.39 607.041 1380.02 606.58 1378.54C602.734 1369.04 603.933 1358.21 606.935 1348.4C609.778 1338.33 613.56 1328.55 618.231 1319.18C620.625 1327 622.829 1335.57 624.805 1343.62C627.642 1353.59 627.965 1364.1 625.746 1374.23Z" fill="black"/>
<path d="M271.92 1361.71C287.187 1399.17 316.744 1428.62 345.548 1456.95C346.825 1458.24 348.878 1460.15 351.279 1462.26C353.207 1463.95 355.485 1465.19 357.949 1465.9C360.413 1466.61 363.003 1466.76 365.534 1466.36C368.065 1465.95 370.475 1464.99 372.593 1463.54C374.71 1462.1 376.482 1460.2 377.782 1457.99C383.581 1448.08 390.718 1436.33 394.482 1431.35C407.079 1414.82 413.759 1409.26 413.446 1394.1C413.238 1385.87 411.163 1377.79 407.377 1370.48L362.697 1282.22C357.023 1270.76 348.775 1260.76 338.597 1253.01C271.97 1203.19 255.482 1321.35 271.92 1361.71Z" fill="#ED603C"/>
<path d="M503.401 1692.36C589.958 1725.82 680.785 1699.5 706.269 1633.58C731.753 1567.65 682.243 1487.09 595.686 1453.63C509.129 1420.16 418.302 1446.48 392.818 1512.41C367.334 1578.33 416.844 1658.89 503.401 1692.36Z" fill="#D597C3"/>
<path d="M621.875 1414.98C652.38 1427.79 679.095 1446.16 697.998 1473.53C701.027 1477.76 703.808 1482.11 706.368 1486.62C720 1510.49 727.179 1537.51 727.2 1565C727.221 1592.5 720.083 1619.52 706.488 1643.42C692.893 1667.32 673.31 1687.27 649.666 1701.3C626.022 1715.33 599.132 1722.97 571.642 1723.45C566.69 1724.55 561.676 1725.35 556.628 1725.86C551.664 1726.4 546.674 1726.67 541.68 1726.64C528.262 1727.3 514.864 1724.98 502.447 1719.85C498.278 1718.2 494.207 1716.31 490.257 1714.18C472.002 1703.45 452.467 1695.06 432.113 1689.21C385.675 1676.09 394.713 1615.17 386.59 1575.88C386.012 1570.67 385.59 1565.64 385.478 1560.41C384.529 1517.62 400.612 1476.2 430.191 1445.26C433.757 1441.55 437.508 1438.02 441.43 1434.69C452.764 1423.38 468.512 1411.77 485.161 1414.99C493.05 1415.91 500.545 1418.94 506.851 1423.77C528.793 1447.95 558.043 1422.22 580.304 1412.11C588.595 1408.91 597.592 1407.97 606.364 1409.41L621.875 1414.98ZM529.163 1670.36C551.644 1667.49 571.313 1654.15 593.871 1656.43C599.881 1657.28 605.83 1657.77 611.561 1658.15C657.767 1660.58 695.233 1646.47 706.252 1617.96C713.065 1600.34 708.487 1579.82 695.345 1559.8C692.616 1555.66 689.651 1551.67 686.465 1547.87C680.759 1541.82 674.844 1536.32 667.305 1535.01C651.803 1532.91 636.797 1528.08 622.985 1520.74C618.557 1518.43 614.274 1515.92 610.064 1513.31C562.304 1502.5 517.013 1494.64 477.503 1465.55C473.32 1464.92 469.092 1464.64 464.863 1464.7C460.377 1464.98 456.013 1465.48 451.772 1466.2C443.932 1468.24 436.474 1471.54 429.684 1475.95C422.918 1480.38 417.218 1486.25 412.993 1493.14C407.516 1501.99 404.401 1512.1 403.944 1522.5C403.488 1532.9 405.706 1543.24 410.386 1552.54C412.154 1556.31 414.12 1559.99 416.275 1563.55C433.822 1605.89 475.875 1630.19 505.276 1663.36C508.986 1666.11 513.2 1668.11 517.679 1669.23C521.455 1670.02 525.306 1670.4 529.163 1670.36V1670.36Z" fill="black"/>
<path d="M507.289 1523.02C506.672 1524.22 506.413 1525.57 506.544 1526.9C506.859 1527.8 507.347 1528.63 507.981 1529.33C508.614 1530.04 509.381 1530.61 510.237 1531.02C525.22 1540.65 540.948 1549.07 557.271 1556.2C564.033 1538.2 570.093 1519.89 575.434 1501.4C576.192 1499.85 576.363 1498.07 575.916 1496.4C575.469 1494.74 574.435 1493.28 573.003 1492.32C565.836 1485.38 557.395 1477.91 547.338 1478.19C524.683 1478.79 514.24 1505.55 507.289 1523.02Z" fill="white"/>
<path d="M619.148 1566.27C618.777 1567.56 618.054 1568.73 617.06 1569.63C616.225 1570.09 615.309 1570.37 614.364 1570.47C613.419 1570.57 612.465 1570.47 611.556 1570.2C593.991 1567.25 576.69 1562.9 559.818 1557.19C566.924 1539.32 574.754 1521.7 583.266 1504.43C583.88 1502.83 584.922 1501.43 586.278 1500.38C587.784 1499.59 589.478 1499.23 591.174 1499.35C601.145 1499.03 612.384 1499.18 619.637 1506.15C636.027 1521.84 625.727 1548.66 619.148 1566.27Z" fill="white"/>
<path d="M628.617 1543.96C629.033 1538.97 629.971 1534.04 631.415 1529.25C632.168 1526.85 633.582 1524.72 635.494 1523.1C637.406 1521.47 639.738 1520.42 642.221 1520.06C645.593 1520.11 648.825 1521.41 651.277 1523.73C654.556 1526.76 657.18 1530.44 658.988 1534.52C660.795 1538.61 661.749 1543.02 661.79 1547.49C661.799 1556.43 660.362 1565.31 657.535 1573.79C657.27 1575.18 656.622 1576.48 655.662 1577.53C654.772 1578.22 653.715 1578.68 652.595 1578.84C647.298 1579.5 641.921 1578.78 636.978 1576.77C633.216 1575.55 625.999 1574.6 623.124 1571.84C619.741 1568.53 622.105 1564.88 623.591 1561.12C625.865 1555.59 627.549 1549.84 628.617 1543.96V1543.96Z" fill="white"/>
<path d="M496.999 1476.17C500.202 1473.13 504.038 1470.84 508.232 1469.45C510.336 1468.79 512.558 1468.6 514.745 1468.88C516.932 1469.15 519.033 1469.9 520.904 1471.07C521.813 1471.64 522.593 1472.4 523.198 1473.29C523.803 1474.18 524.22 1475.18 524.422 1476.24C524.498 1478.24 524.046 1480.23 523.113 1482C517.588 1494.93 511.325 1507.48 505.108 1520.09C504.742 1520.97 504.199 1521.76 503.514 1522.42C502.553 1522.99 501.464 1523.31 500.348 1523.35C499.231 1523.39 498.123 1523.15 497.124 1522.65C490.922 1520.92 485.519 1517.08 481.854 1511.79C474.388 1499.67 488.348 1483.86 496.999 1476.17Z" fill="white"/>
<path d="M470.441 1581.48C471.621 1578.49 473.667 1575.92 476.315 1574.09C480.507 1571.74 485.652 1573.04 490.163 1574.62C494.72 1576.23 499.192 1578.07 503.563 1580.13C506.145 1581.1 508.411 1582.76 510.113 1584.93C512.521 1588.55 511.616 1593.35 510.448 1597.56C506.465 1611.98 500.749 1625.85 493.424 1638.88C492.792 1640.3 491.758 1641.5 490.45 1642.33C487.437 1643.92 483.968 1641.43 481.461 1639.09C473.745 1631.87 463.675 1625.64 461.861 1615.39C460.047 1605.13 466.026 1590.6 470.441 1581.48Z" fill="white"/>
<path d="M514.327 1596.84C514.878 1595.36 515.645 1593.97 516.605 1592.73C517.933 1591.41 519.588 1590.48 521.398 1590.03C523.208 1589.57 525.106 1589.61 526.897 1590.14C530.456 1591.26 533.78 1593.02 536.705 1595.34C538.304 1596.25 539.618 1597.59 540.497 1599.2C541.176 1601.6 540.934 1604.17 539.819 1606.39L522.667 1654.76C521.077 1658.87 519.277 1663.53 515.194 1665C511.111 1666.48 505.467 1663.83 502.03 1660.24C499.48 1657.58 492.943 1652.49 492.554 1648.83C492.088 1644.51 497.07 1637.15 498.782 1633.31L514.327 1596.84Z" fill="white"/>
<path d="M569.128 1621.65C569.677 1620.29 569.991 1618.85 570.057 1617.38C569.868 1615.58 569.21 1613.86 568.148 1612.39C567.086 1610.92 565.658 1609.75 564.005 1609C560.625 1607.46 557.009 1606.51 553.309 1606.18C551.548 1605.76 549.708 1605.81 547.971 1606.32C545.934 1607.47 544.431 1609.38 543.784 1611.63L525.367 1655.36C523.898 1659.16 522.231 1663.47 524.276 1667.19C526.321 1670.9 531.919 1669.58 536.824 1669.38C541.675 1668.43 546.346 1666.73 550.664 1664.32C552.232 1663.53 553.611 1662.41 554.707 1661.04C555.804 1659.67 556.593 1658.07 557.021 1656.37L569.128 1621.65Z" fill="white"/>
<path d="M565.728 1641.49L572.321 1622.57C572.672 1621.25 573.291 1620.03 574.139 1618.97C575.924 1617.45 578.222 1616.67 580.562 1616.79C583.49 1616.68 586.423 1616.82 589.325 1617.22C593.746 1617.85 598.657 1619.58 600.353 1623.68C601.252 1626.77 601.131 1630.06 600.008 1633.07C598.186 1640.25 596.296 1647.43 594.332 1654.55C594.232 1655.28 593.963 1655.97 593.548 1656.58C592.352 1657.89 590.266 1657.51 588.527 1657.16C580.16 1655.54 572.97 1658.34 565.074 1660.51C560.199 1661.91 561.4 1658.04 562.112 1654.24C562.99 1649.9 564.199 1645.64 565.728 1641.49V1641.49Z" fill="white"/>
<path d="M1023.31 961.211L828.475 979.856L874.902 1054.08L1023.31 961.211Z" fill="black"/>
<path d="M930.693 813.162L828.691 980.208L782.264 905.987L930.693 813.162Z" fill="black"/>
<path d="M574.461 1250.52C569.472 1209.76 554.052 1124.97 548.468 1092.28L492.069 1080.88C465.08 1101.44 438.099 1122 411.128 1142.57C415.203 1187.4 422.429 1231.88 432.752 1275.69L574.461 1250.52Z" fill="black"/>
<path d="M381.388 1188.3C381.691 1156.83 392.891 1126.45 413.082 1102.32C425.294 1088.7 439.389 1076.89 454.939 1067.25C478.411 1051.8 505.038 1038.12 529.477 1043.7C538.387 1045.96 546.698 1050.14 553.834 1055.94C582.624 1078.2 598.728 1117.65 601.537 1159.21C604.347 1200.78 594.907 1244.31 579.426 1284.78C572.602 1302.43 564.479 1320.31 551.693 1333.42C526.326 1359.47 488.304 1360.07 461.573 1343.69C421.708 1319.25 381.439 1243.54 381.388 1188.3Z" stroke="#1D1D1B" stroke-width="2" stroke-miterlimit="10"/>
<path d="M866.279 366.038C849.309 319.448 838.745 268.326 850.073 220C862.588 166.676 900.644 123.306 942.942 90.439C1087.57 -21.8419 1298.76 -30.4822 1451.53 69.6007C1470.65 81.6473 1488.75 95.2166 1505.67 110.176C1528.69 131.434 1547.75 156.601 1561.97 184.508C1575.93 211.995 1583.9 266.717 1552 333.51C1596.44 427.578 1646.82 518.737 1702.82 606.44L1539.57 675.943C1539.57 675.943 1540.03 850.273 1491.67 916.472C1461.97 957.005 1405.59 967.594 1358.41 954.21C1311.23 940.826 1271.65 907.875 1235.17 873.991C1156.68 801.015 1103.65 716.391 1035.13 635.537C966.615 554.683 902.892 467.688 866.279 366.038Z" fill="#2FAD74"/>
<path d="M1474.48 627.761C1465.17 624.94 1456.49 620.335 1448.91 614.2C1439.14 605.227 1432.98 592.96 1431.59 579.721C1430.2 566.481 1433.68 553.188 1441.37 542.357C1450.84 530.816 1463.75 522.658 1478.19 519.096C1495.17 514.524 1513.02 514.399 1530.06 518.733C1547.1 523.067 1562.75 531.717 1575.54 543.859C1587.41 554.719 1595.29 569.296 1597.91 585.231C1599.07 593.174 1598.1 601.285 1595.1 608.724C1592.11 616.164 1587.19 622.662 1580.86 627.547C1555.85 644.713 1500.99 636.516 1474.48 627.761Z" fill="#ED603C"/>
<path d="M1526.97 625.788C1519.68 624.811 1512.6 622.725 1506 619.611C1499.36 616.464 1494.16 611.08 1491.42 604.494C1490.86 603.373 1490.6 602.138 1490.66 600.898C1490.72 599.658 1491.1 598.45 1491.76 597.383C1493.07 596.097 1494.79 595.28 1496.65 595.066C1504.51 594.104 1512.5 595.171 1519.78 598.155C1528.45 601.171 1536.78 605.01 1544.65 609.615C1551.37 613.678 1560.6 619.571 1552.09 625.138C1545.2 629.689 1534.53 627.048 1526.97 625.788Z" fill="black"/>
<path d="M1487.33 402.192C1494.3 365.729 1441.86 325.069 1370.21 311.374C1298.55 297.679 1234.82 316.136 1227.85 352.599C1220.88 389.061 1273.32 429.722 1344.97 443.417C1416.63 457.111 1480.36 438.654 1487.33 402.192Z" fill="black"/>
<path d="M913.434 399.145C922.734 403.123 932.26 406.551 941.963 409.41C954.342 412.94 965.547 419.726 974.408 429.062C1001.22 457.021 1026.35 481.985 1043.37 518.452C1051.84 536.666 1059.36 555.918 1059.71 575.969C1060.07 596.02 1052.56 617.269 1036.14 628.773C1021.44 639.078 1002.3 640.316 986.235 648.265C941.164 670.632 937.608 732.143 916.551 777.597C910.917 789.82 902.486 802.282 889.46 805.837C876.435 809.391 863.489 803.32 852.101 796.69C808.664 771.343 772.551 735.161 747.295 691.682C736.267 672.629 727.317 651.739 726.678 629.771C725.159 578.246 768.392 520.649 791.967 476.153C820.535 421.832 853.499 387.402 913.434 399.145Z" stroke="black" stroke-width="2" stroke-miterlimit="10"/>
<path d="M1440.64 393.269C1445.1 369.931 1411.53 343.905 1365.67 335.139C1319.8 326.373 1279 338.185 1274.54 361.523C1270.08 384.861 1303.65 410.887 1349.51 419.653C1395.38 428.419 1436.18 416.606 1440.64 393.269Z" fill="white"/>
<path d="M112.296 430.644L260.951 381.77L701.566 736.331L78.6419 1032.39L112.296 430.644Z" fill="#ED603C"/>
</svg>
