<svg width="345" height="207" viewBox="0 0 345 207" fill="none" xmlns="http://www.w3.org/2000/svg">
<path d="M343.13 5.6929H345L336.75 151.234C313.207 117.961 292.551 82.7918 275.003 46.0989C272.289 89.6853 269.551 133.272 266.789 176.858C241.166 142.356 218.233 105.991 198.185 68.0728C193.565 111.226 188.872 154.812 192.758 198.182L135.045 92.0345C126.557 126.279 121.642 161.289 120.378 196.519C101.546 169.2 85.9809 139.827 73.994 108.985C65.5606 141.295 58.7406 173.967 53.5339 207C30.3931 170.639 12.383 131.342 0 90.1913C43.0104 63.013 87.6342 47.6168 136.475 32.3652C136.475 32.3652 277.863 -16.2087 344.927 5.65677" fill="black"/>
</svg>
