<svg width="294" height="318" viewBox="0 0 294 318" fill="none" xmlns="http://www.w3.org/2000/svg">
<path d="M99.3625 57.3714C123.547 24.1172 171.216 3.63228 206.662 24.5957C234.656 41.1508 245.432 78.412 239.158 110.365C232.885 142.318 212.812 169.73 190.845 193.664C174.416 211.623 155.795 229.708 150.557 253.582C147.582 267.117 150.991 281.721 139.758 293.126C131.671 301.336 122.914 303.647 112.973 305.509C99.5239 308.189 83.7881 309.309 73.8551 299.768C63.4365 289.781 64.4019 273.068 66.1802 258.769C71.0433 219.382 79.0543 179.05 80.9367 139.407C82.3015 110.64 77.8956 81.2142 99.3625 57.3714Z" fill="#ED603C"/>
<path d="M194.578 115.184C198 102.461 199.25 72.8492 191.107 62.5173C182.964 52.1854 156.838 48.2466 144.564 53.1012C133.828 57.2893 123.264 73.1496 117.507 83.2106C111.846 93.4883 108.272 104.807 106.994 116.51C105.481 128.455 113.691 146.923 115.288 158.899C118.681 184.193 107.122 212.369 105.521 229.807L109.93 231.758C116.684 222.216 140.175 182.74 159.425 165.032C173.7 151.595 189.443 134.267 194.578 115.184Z" fill="white"/>
<path d="M141.19 148.2C126.976 152.468 111.994 144.404 107.726 130.19C103.459 115.976 111.522 100.994 125.736 96.7269C139.95 92.4594 154.932 100.523 159.2 114.737C163.467 128.951 155.404 143.933 141.19 148.2Z" fill="black"/>
</svg>
