<svg width="281" height="356" viewBox="0 0 281 356" fill="none" xmlns="http://www.w3.org/2000/svg">
<path d="M178.098 25.9634C167.341 20.4025 155.397 17.5269 143.288 17.582C114.169 18.7756 90.5607 45.1759 84.7682 73.7247C80.1987 96.3531 84.643 119.746 89.0641 142.401L107.294 235.671C113.761 268.847 120.359 302.41 134.485 333.106C138.637 342.17 149.037 352.331 156.745 346.029C158.894 343.977 160.392 341.338 161.052 338.441C166.924 319.261 163.313 298.573 165.101 278.571C167.736 249.558 181.75 223.823 199.424 201.242C215.677 180.522 248.521 161.786 252.109 136.619C258.261 93.0675 213.795 42.9313 178.098 25.9634Z" fill="black"/>
<path d="M130.358 146.366C130.033 126.388 131.938 106.01 142.608 90.0863C150.761 77.8441 167.57 68.5272 183.725 75.6976C191.208 79.4162 197.425 85.2631 201.595 92.5037C212.861 110.654 213.879 132.611 204.179 148.489C196.666 160.67 183.867 168.901 173.92 179.328C158.301 195.723 153.44 215.042 150.038 236.972C130.507 228.889 130.671 162.021 130.358 146.366Z" fill="white"/>
</svg>
