<svg width="284" height="203" viewBox="0 0 284 203" fill="none" xmlns="http://www.w3.org/2000/svg">
<path d="M162.577 157.458C229.161 132.563 273.731 87.2246 262.128 56.1913C250.525 25.158 187.143 20.1814 120.56 45.0759C53.9764 69.9704 9.406 115.309 21.0089 146.342C32.6118 177.376 95.9942 182.352 162.577 157.458Z" fill="black"/>
<path d="M259.086 49.952C215.36 48.0124 171.747 55.8234 131.318 72.8346C90.8888 89.8459 54.6269 115.644 25.0859 148.412C68.326 155.993 112.813 150.242 152.799 131.903C194.078 112.945 231.481 86.3457 259.086 49.952Z" fill="white"/>
<path d="M179.026 50.5473C183.47 70.5919 181.195 90.9223 167.551 102.713C153.906 114.504 130.186 118.935 115.072 113.111C110.601 111.552 106.466 109.126 102.897 105.965C98.6398 101.41 95.0035 96.2904 92.0859 90.7437C92.9622 85.3994 94.9287 80.303 97.8579 75.7849C100.787 71.2669 104.614 67.4282 109.089 64.5178C124.928 53.7672 144.175 49.5651 162.933 52.7625C164.212 53.1437 165.572 53.1437 166.851 52.7625C167.81 52.2597 168.704 51.6355 169.51 50.9046C172.554 48.5107 175.598 50.2614 179.026 50.5473Z" fill="black"/>
</svg>
