<svg width="432" height="524" viewBox="0 0 432 524" fill="none" xmlns="http://www.w3.org/2000/svg">
<path d="M212.802 324.581C232.159 264.066 268.972 203.266 302.36 149.215C303.299 147.695 290.456 144.444 284.212 140.677C247.506 118.462 225.412 104.509 190.207 79.9242C174.059 68.663 156.965 55.539 150.684 37.1752C149.826 34.6302 152.226 32.1323 154.735 33.0064C179.643 41.6325 239.244 67.4687 273.71 83.6067C276.1 84.7319 282.403 87.6329 283.032 86.6121C283.512 85.8558 280.796 83.3487 274.712 77.94C262.643 67.1844 259.331 64.6493 254.556 59.439C245.73 49.8599 245.039 45.5272 245.628 42.4928C245.75 41.8481 246.914 38.8335 249.559 38.2543C258.817 36.2268 269.791 41.2141 277.712 47.2186C303.928 67.1467 327.451 88.1044 353.646 108.025C357.222 110.758 360.91 113.583 363.033 117.594C367.634 126.218 363.619 136.84 359.561 145.842C352.63 161.161 332.468 191.07 328.374 200.231C290.647 284.695 276.579 312.54 293.103 414.847C296.129 433.608 301.744 450.141 292.872 468.476C272.271 511.1 218.276 529.034 202.365 475.94C188.207 428.542 197.99 370.824 212.802 324.581Z" fill="#2FAD74"/>
<path d="M269.276 61.9895C270.351 61.7778 271.523 61.5036 272.252 60.6664C273.689 58.9841 272.502 56.4086 271.153 54.7116C266.727 49.0818 260.752 44.7215 254.075 42.2219C252.439 41.6037 250.704 41.1209 248.965 41.3538C247.226 41.5868 245.503 42.7407 245.031 44.4413C244.518 46.3743 245.452 48.6562 246.573 50.3162C249.24 54.2424 252.144 57.8625 255.664 61.0726C256.246 61.5985 256.874 62.0009 257.538 62.3023C261.004 63.8763 265.442 62.6988 269.276 61.9895Z" fill="#ED603C"/>
<path d="M257.92 101.146C244.645 94.8425 223.066 84.1133 206.984 75.5367C185.557 64.148 164.703 51.6904 144.771 37.8249" stroke="white" stroke-width="0.5" stroke-miterlimit="10"/>
<path d="M233.58 99.6084C225.218 94.6919 220.449 92.3451 205.391 83.7595C184.294 71.7538 163.346 59.1613 145.014 43.1808" stroke="white" stroke-width="0.5" stroke-miterlimit="10"/>
<path d="M165.45 48.1853C165.51 47.9609 165.478 47.7259 165.437 47.5127C164.742 44.0847 162.016 41.4715 159.121 39.5611C156.478 37.82 153.623 36.4443 150.782 35.0983C150.599 35.0044 150.408 34.9321 150.192 34.9248C149.803 34.9261 149.47 35.2946 149.352 35.6705C149.255 36.0544 149.337 36.4809 149.435 36.8641C150.2 39.8488 152.202 42.3862 154.557 44.3147C156.432 45.8397 158.553 47.037 160.706 48.1477C161.587 48.5795 165.021 49.7048 165.45 48.1853Z" fill="#ED603C"/>
<path d="M166.884 56.5691C166.928 56.3879 166.908 56.1828 166.859 55.9912C166.264 53.0707 163.931 50.8288 161.463 49.2032C159.212 47.7093 156.787 46.5454 154.333 45.3952C154.171 45.3093 154.001 45.2451 153.836 45.2322C153.498 45.228 153.21 45.5396 153.13 45.8802C153.05 46.2208 153.113 46.5663 153.185 46.8902C153.848 49.4404 155.558 51.5954 157.557 53.2414C159.155 54.5378 160.973 55.5714 162.803 56.5104C163.607 56.8884 166.524 57.8425 166.884 56.5691Z" fill="#ED603C"/>
<path d="M169.45 63.4735C169.474 63.4086 169.443 63.298 169.404 63.209C168.879 61.7739 167.248 60.2426 165.549 58.9574C164.004 57.7797 162.337 56.7294 160.679 55.6575C160.581 55.5957 160.462 55.5258 160.356 55.4857C160.143 55.4054 159.967 55.487 159.918 55.6169C159.869 55.7467 159.926 55.9167 160.004 56.0947C160.536 57.384 161.771 58.741 163.173 59.9138C164.297 60.8579 165.525 61.7179 166.791 62.5428C167.295 62.8814 169.262 63.9711 169.45 63.4735Z" fill="#ED603C"/>
</svg>
