<svg width="618" height="695" viewBox="0 0 618 695" fill="none" xmlns="http://www.w3.org/2000/svg">
<path d="M122.452 553.922C113.427 466.768 134.661 380.357 182.689 308.785C230.35 238.251 324.362 174.489 388.421 163.926C388.421 163.926 435.774 155.902 457.316 158.455C505.729 164.186 537.423 181.939 573.725 207.906C579.805 212.056 585.375 216.899 590.312 222.328C591.88 224.123 589.966 225.244 588.167 226.684C579.373 233.69 562.635 224.051 550.066 221.173C537.075 218.186 523.823 214.093 510.519 213.314C504.255 212.943 497.478 212.026 491.215 212.14C487.24 212.216 468.185 212.678 468.185 212.678C471.442 215.243 474.832 217.637 478.341 219.848C489.733 224.928 498.655 229.154 511.261 230.662C516.233 231.254 537.035 237.918 535.123 248.521C534.915 249.015 534.628 249.473 534.275 249.877C533.231 250.967 531.571 250.209 530.151 250.312C524.575 250.523 508.927 246.989 506.724 246.75C496.594 245.635 486.431 245.057 476.325 244.12C466.22 243.184 461.274 240.714 451.408 238.368C442.516 236.243 426.451 232.437 419.151 226.721L406.347 216.657C400.31 216.311 394.271 216.335 388.266 216.729C383.422 217.312 378.677 218.409 374.114 220.004C371.287 220.918 364.094 223.759 364.094 223.759C305.087 248.03 252.107 297.484 225.502 354.539C215.157 376.725 205.078 398.633 199.428 422.531C196.439 435.247 194.027 448.097 192.193 461.08C189.748 478.37 194.271 521.953 189.597 537.016C184.922 552.078 178.907 558.465 173.61 562.822C163.218 571.355 147.194 578.231 132.888 570.08C129.981 568.363 127.514 565.996 125.697 563.182C123.879 560.368 122.766 557.191 122.452 553.922Z" fill="#D597C3"/>
<path d="M592.051 220.281C582.588 217.059 564.726 207.543 553.075 202.436C547.633 200.046 539.616 199.03 534.027 197.043C522.281 192.883 498.184 188.813 485.951 187.041" stroke="white" stroke-width="0.5" stroke-miterlimit="10"/>
<path d="M561.896 195.182L532.057 182.781C529.053 181.53 526.041 180.285 522.945 179.318C514.768 176.791 490.07 170.887 490.07 170.887" stroke="white" stroke-width="0.5" stroke-miterlimit="10"/>
<path d="M531.035 241.961C531.035 241.961 528.836 240.731 527.699 240.132C526.258 239.373 524.714 238.838 523.124 238.545C521.397 238.183 519.626 238.17 517.922 238.507C517.073 238.686 516.291 239.071 515.646 239.627C515.001 240.183 514.513 240.893 514.225 241.693C514.036 242.573 514.09 243.496 514.382 244.367C514.674 245.238 515.193 246.027 515.886 246.653C517.29 247.893 518.962 248.796 520.764 249.287C523.367 250.123 526.051 250.652 528.757 250.862C530.584 251.008 536.661 251.731 537.572 249.666C538.592 247.347 533.977 243.623 531.035 241.961Z" fill="#2FAD74"/>
<path d="M580.887 222.177C580.177 221.666 579.613 220.982 579.256 220.196C579.085 219.794 579.05 219.352 579.158 218.94C579.266 218.527 579.51 218.166 579.853 217.911C580.533 217.61 581.314 217.578 582.039 217.823C588.48 219.279 596.069 221.276 594.044 224.692C591.504 228.866 583.276 224.149 580.887 222.177Z" fill="#2FAD74"/>
<path d="M583.582 216.764C582.834 216.408 582.152 215.925 581.569 215.339C580.979 214.713 580.647 213.898 580.643 213.061C580.632 212.965 580.644 212.868 580.676 212.777C580.708 212.687 580.76 212.605 580.829 212.538C580.898 212.492 580.978 212.46 581.062 212.445C581.146 212.43 581.232 212.432 581.317 212.451L583.983 214.213C583.983 214.213 588.197 217.65 587.887 217.974C587.356 218.701 584.306 217.152 583.582 216.764Z" fill="#2FAD74"/>
</svg>
