<svg width="550" height="617" viewBox="0 0 550 617" fill="none" xmlns="http://www.w3.org/2000/svg">
<path d="M108.896 492.395C100.872 414.919 119.74 338.104 162.422 274.482C204.778 211.783 288.329 155.105 345.261 145.718C345.261 145.718 387.346 138.587 406.492 140.857C449.519 145.954 477.688 161.736 509.953 184.821C515.356 188.511 520.307 192.816 524.695 197.642C526.089 199.238 524.388 200.234 522.789 201.515C514.974 207.742 500.097 199.173 488.926 196.614C477.38 193.958 465.603 190.319 453.779 189.626C448.211 189.296 442.188 188.481 436.622 188.581C433.089 188.649 416.154 189.059 416.154 189.059C419.049 191.339 422.062 193.467 425.18 195.433C435.305 199.95 443.235 203.706 454.438 205.047C458.857 205.574 477.346 211.499 475.647 220.924C475.461 221.364 475.207 221.77 474.893 222.13C473.965 223.099 472.49 222.425 471.228 222.516C466.273 222.704 452.364 219.562 450.407 219.349C441.404 218.357 432.371 217.843 423.39 217.01C414.409 216.177 410.013 213.982 401.244 211.895C393.341 210.006 379.064 206.622 372.575 201.541L361.196 192.594C355.83 192.286 350.463 192.307 345.126 192.658C340.821 193.175 336.604 194.151 332.548 195.568C330.036 196.38 323.643 198.905 323.643 198.905C271.202 220.479 224.117 264.439 200.475 315.157C191.281 334.879 182.324 354.354 177.304 375.597C174.647 386.902 172.504 398.324 170.875 409.866C168.703 425.235 172.724 463.979 168.57 477.368C164.417 490.758 159.071 496.435 154.363 500.308C145.128 507.894 130.887 514.005 118.172 506.759C115.589 505.232 113.395 503.128 111.78 500.627C110.165 498.125 109.175 495.301 108.896 492.395Z" fill="#D597C3"/>
<path d="M526.238 195.817C517.828 192.953 501.953 184.493 491.599 179.953C486.763 177.828 479.637 176.924 474.671 175.159C464.231 171.46 442.815 167.841 431.944 166.265" stroke="white" stroke-width="0.5" stroke-miterlimit="10"/>
<path d="M499.441 173.505L472.922 162.481C470.252 161.368 467.575 160.262 464.824 159.401C457.556 157.155 435.607 151.906 435.607 151.906" stroke="white" stroke-width="0.5" stroke-miterlimit="10"/>
<path d="M472.01 215.087C472.01 215.087 470.055 213.994 469.045 213.46C467.765 212.786 466.393 212.31 464.979 212.05C463.444 211.728 461.87 211.716 460.356 212.016C459.602 212.175 458.907 212.517 458.333 213.011C457.76 213.506 457.326 214.137 457.071 214.848C456.903 215.63 456.951 216.45 457.21 217.225C457.469 217.999 457.931 218.7 458.547 219.257C459.794 220.359 461.281 221.162 462.882 221.598C465.195 222.342 467.581 222.812 469.986 222.999C471.609 223.129 477.01 223.771 477.82 221.936C478.726 219.875 474.625 216.564 472.01 215.087Z" fill="#2FAD74"/>
<path d="M516.32 197.502C515.689 197.048 515.188 196.44 514.87 195.741C514.718 195.383 514.687 194.991 514.783 194.624C514.879 194.257 515.096 193.936 515.401 193.71C516.005 193.442 516.699 193.414 517.343 193.631C523.067 194.926 529.813 196.701 528.013 199.738C525.756 203.448 518.443 199.255 516.32 197.502Z" fill="#2FAD74"/>
<path d="M518.71 192.689C518.045 192.372 517.439 191.943 516.921 191.422C516.396 190.865 516.102 190.14 516.098 189.397C516.088 189.311 516.098 189.225 516.127 189.145C516.155 189.064 516.202 188.992 516.263 188.932C516.325 188.891 516.395 188.863 516.47 188.849C516.544 188.836 516.622 188.838 516.697 188.855L519.066 190.421C519.066 190.421 522.811 193.477 522.536 193.764C522.064 194.411 519.353 193.034 518.71 192.689Z" fill="#2FAD74"/>
</svg>
