<svg width="383" height="215" viewBox="0 0 383 215" fill="none" xmlns="http://www.w3.org/2000/svg">
<path d="M249.968 0C255.503 20.1906 259.864 40.6842 263.028 61.3782C263.514 64.581 263.941 68.0362 262.464 70.9285C259.685 76.3442 252.281 76.7518 246.217 76.7518C175.021 75.5191 105.238 96.6788 46.7437 137.237C20.7212 155.386 -4.95151 183.3 0.820471 214.455C128.491 198.305 255.734 179.392 382.549 157.716L344.088 0.000164124" fill="black"/>
<path d="M125.827 51.6945C125.425 48.719 126.115 45.6988 127.77 43.1924C128.996 41.6788 130.541 40.4527 132.294 39.6008C134.047 38.7488 135.966 38.2918 137.915 38.262C144.872 38.0679 149.809 42.513 152.879 46.5506C158.243 53.5968 179.252 88.9058 160.459 89.0222C139.858 89.1581 126.526 61.3031 125.827 51.6945Z" stroke="#1D1D1B" stroke-width="2.09" stroke-miterlimit="10"/>
<path d="M201.913 37.9914C201.421 35.0326 199.875 32.3511 197.56 30.4404C195.931 29.3504 194.081 28.6337 192.142 28.3418C190.204 28.0498 188.224 28.1898 186.346 28.7517C179.642 30.6928 176.24 36.3026 174.511 41.0778C171.479 49.3857 161.84 89.334 179.836 83.8988C199.562 77.9396 204.09 47.4058 201.913 37.9914Z" stroke="#1D1D1B" stroke-width="2.09" stroke-miterlimit="10"/>
</svg>
