<svg width="326" height="327" viewBox="0 0 326 327" fill="none" xmlns="http://www.w3.org/2000/svg">
<path d="M139.431 252.963C109.002 215.108 80.8974 153.449 88.156 103C100.277 104.456 113.829 112.609 125.486 117.013C139.216 122.255 153.519 127.132 167.822 131.391C180.873 135.031 194.067 138.234 206.939 142.602C222.565 147.952 239.12 144.021 255.068 146.642C270.377 148.85 284.844 155.128 297.01 164.841C300.507 167.764 303.663 171.086 306.414 174.742C308.767 178.036 310.917 181.477 312.85 185.043C318.393 194.798 323.935 203.752 325.508 215.108C326.939 225.736 324.793 235.964 324.793 246.557C323.431 262.268 318.312 277.401 309.883 290.635C302.41 302.501 291.325 316.515 277.702 320.883C266.76 324.523 255.425 327.908 244.019 326.779C237.601 325.877 231.304 324.241 225.247 321.902C217.006 318.519 209.162 314.21 201.862 309.053C193.908 304.103 186.254 298.67 178.942 292.783C164.352 281.053 151.099 267.696 139.431 252.963V252.963Z" fill="#ED603C"/>
<path d="M125.992 115.524C129.744 76.5421 138.336 56.7411 141 17.7225C130.269 33.804 118.488 47.3328 107.757 63.3049C103.217 45.5095 91.1735 0 91.1735 0L87.1588 24.2499C85.0202 38.034 83.4069 50.6877 81.1182 64.3625C67.0857 47.4422 33.2427 18.8894 33.2427 18.8894C33.2427 18.8894 40.7467 41.4618 55.7547 77.7455C37.0447 70.5009 18.4598 62.7944 0 54.626C17.0341 72.859 36.6195 91.092 54.2914 108.997C54.2914 108.997 6.9412 117.603 1.76344 118.259C1.76344 118.259 58.6812 135.69 84.0822 140.686C85.0232 140.857 85.9767 140.954 86.9337 140.977C93.9122 141.171 100.868 140.12 107.457 137.878C111.942 136.528 116.111 134.335 119.726 131.423C120.925 130.003 122.04 128.518 123.065 126.975C124.409 124.737 125.265 122.254 125.579 119.681L125.992 115.524Z" fill="black"/>
</svg>
