<svg width="1374" height="1569" viewBox="0 0 1374 1569" fill="none" xmlns="http://www.w3.org/2000/svg">
<path d="M791.328 1.35449L1373 242.354M344.5 243.354L791.398 519M1069.9 519L1373 782.854M343.898 518.499L1.5 243.354M1249.4 1V1568M1069.4 1V1568M514.398 1V1568M791.398 492V1V783M791.398 783L343.968 1029.56M791.398 783V1276M791.398 783V1568M344.398 1V1568M1373.4 243H1.39844M1.39844 519L1373.4 519M1.39847 1V1568M344.5 1029.35L791 1302.35M1069.64 1303.23L791.398 1567.74M1373 912.354L1250 1028.85M343.102 1303.17L2.00001 1029.35M1373.4 1V1568M1373.4 1029H1.39844M1373.4 912H1249.4M1.39844 1303L1373.4 1303M1 783.354L1373.6 783.355" stroke="black"/>
</svg>
