<svg width="732" height="569" viewBox="0 0 732 569" fill="none" xmlns="http://www.w3.org/2000/svg">
<path d="M398.016 139.617C466.039 116.442 540.207 97.8558 610.333 82.1632C567.342 106.873 521.342 131.786 478.351 156.496C474.222 156.371 473.219 163.08 476.338 165.762C479.491 168.429 484.113 168.096 488.206 167.666C547.432 160.855 604.411 160.234 663.637 153.423C608.589 181.526 551.972 207.701 492.548 224.581C553.528 231.026 613.752 244.563 674.732 251.008C666.374 250.15 650.019 259.889 641.877 262.726C629.76 266.92 617.613 271.045 605.412 274.949C581.023 282.793 556.386 289.969 531.494 295.994C482.014 307.992 431.742 312.714 381.365 319.07C408.333 324.696 436.167 326.116 463.547 323.291C474.862 322.135 486.1 320.237 497.478 320.072C537.851 319.397 575.416 340.068 608.53 363.158C596.981 363.683 586.239 367.851 574.761 368.915C560.777 370.211 546.817 371.658 532.841 372.787C504.806 375.04 476.71 376.586 448.599 377.16C392.427 378.328 336.097 375.653 280.528 367.309C280.012 367.248 279.482 367.152 279.001 367.075C179.449 351.926 81.655 317.802 0 258.874C41.701 257.786 76.9538 246.619 118.655 245.531C164.548 244.337 211.558 242.904 254.254 226.064C305.212 206.009 349.95 165.874 398.016 139.617Z" fill="black"/>
<path d="M413.499 62.536C403.449 77.6089 396.113 94.5211 391.935 112.142C391.019 116.043 390.177 120.116 387.741 123.332C385.92 125.71 383.384 127.38 380.883 129.035C355.549 145.601 330.675 164.167 304.298 178.984C317.425 139.433 347.808 105.847 381.299 81.8741C391.107 74.892 402.162 66.8394 413.499 62.536Z" fill="black"/>
<path d="M160.782 302.732C182.152 314.9 203.851 327.17 227.68 333.26C259.98 341.505 293.983 337.887 327.066 333.649C311.785 311.466 288.451 295.709 263.346 286.016C238.241 276.323 211.269 272.288 184.448 270.102C172.83 269.15 134.981 264.085 126.673 275.184C119.321 285.013 153.425 298.547 160.782 302.732Z" fill="#EBFF00"/>
<path d="M303.603 265.058C320.513 278.874 342.575 285.119 364.367 286.51C386.158 287.902 407.945 284.772 429.531 281.648C414.175 270.947 398.643 260.119 381.232 253.325C371.428 249.507 361.202 246.973 350.956 244.488C334.102 240.386 317.267 236.235 300.412 232.133C268.89 224.366 293.86 257.058 303.603 265.058Z" fill="#EBFF00"/>
<path d="M398.693 235.358C431.046 237.427 462.981 246.237 491.843 261.025C473.419 264.204 456.454 270.092 438.154 264.254C422.356 259.205 408.161 249.019 398.693 235.358Z" fill="#EBFF00"/>
<path d="M434.646 358.142C413.195 365.242 390.86 364.29 369.753 356.205C363.897 353.976 357.875 350.801 355 345.202C382.969 343.549 409.043 346.831 434.646 358.142Z" fill="#EBFF00"/>
<path d="M408.058 219.159C431.808 219.335 455.582 212.329 475.433 199.281C453.312 189.517 427.955 189.019 404.326 194.007C380.745 199.015 358.624 209.176 337.356 220.27C361.5 215.997 383.587 219.012 408.058 219.159Z" fill="#EBFF00"/>
<path d="M230.004 259.647C241.628 261.739 253.563 261.169 265.382 260.609C261.773 248.808 253.684 238.42 243.064 232.064C242.415 231.693 241.086 230.884 240.31 230.691C240.31 230.691 238.878 231.149 237.378 231.636C229.882 233.989 220.555 236.159 213.929 237.605C209.167 238.651 197.766 240.456 197.766 240.456C200.943 250.04 221.565 258.131 230.004 259.647Z" fill="#EBFF00"/>
<path d="M269.503 288.562C266.038 291.002 260.446 295.586 257.015 298.01C250.711 302.455 244.202 306.988 236.729 308.924C223.43 312.367 209.589 307.04 196.883 301.791C195.169 292.104 192.744 280.401 191.064 270.699C197.176 270.982 218.315 273.594 224.467 275.001C244.789 279.678 260.903 283.856 269.503 288.562Z" fill="white"/>
<path d="M371.281 249.898C371.104 249.771 371.535 249.543 371.624 249.749C371.714 249.955 371.533 250.196 371.357 250.354C366.49 254.542 361.658 258.715 356.806 262.937C355.891 263.741 354.874 264.59 353.677 264.742C352.833 264.864 351.958 264.632 351.132 264.419C345.029 262.746 338.94 261.108 332.836 259.435C332.143 259.246 331.401 259.038 330.859 258.54C330.159 257.865 329.963 256.85 329.832 255.888C328.983 250.266 328.22 244.934 327.372 239.312C327.503 239.051 327.812 238.917 328.092 238.999C331.158 239.585 333.916 240.59 337.005 241.043C338.484 241.258 339.987 241.625 341.476 241.957C351.716 244.241 361.438 246.179 371.281 249.898Z" fill="white"/>
<path d="M435.48 127.497C435.48 127.497 434.865 135.383 434.524 134.879C431.132 140.587 427.361 144.014 422.964 149.099C416.369 156.725 406.861 162.518 397.053 164.896C387.245 167.274 372.284 164.062 364.658 159.912C364.658 159.912 395.837 137.186 412.643 134.219C416.361 133.585 421.871 131.726 421.871 131.726L435.48 127.497Z" fill="#EBFF00"/>
<path d="M528.167 356.807C523.02 357.531 516.893 358.435 511.746 359.159C505.722 360.018 499.9 359.935 493.818 360.005C478.739 360.185 463.217 353.142 451.064 344.19C451.345 344.273 455.146 343.643 455.392 343.74C466.128 341.531 481.539 339.576 499.925 341.384C519.961 343.333 535.796 348.936 546.257 353.61C542.399 353.734 532.032 356.232 528.167 356.807Z" fill="#EBFF00"/>
</svg>
