<svg width="651" height="506" viewBox="0 0 651 506" fill="none" xmlns="http://www.w3.org/2000/svg">
<path d="M353.731 124.11C414.185 103.509 480.101 86.9872 542.425 73.0375C504.217 95.0026 463.335 117.149 425.127 139.114C421.458 139.003 420.567 144.968 423.338 147.352C426.14 149.722 430.249 149.426 433.886 149.044C486.522 142.99 537.162 142.437 589.798 136.383C540.875 161.364 490.557 184.633 437.745 199.638C491.94 205.367 545.463 217.401 599.659 223.13C592.23 222.367 577.695 231.024 570.459 233.546C559.69 237.274 548.895 240.941 538.051 244.412C516.376 251.384 494.48 257.764 472.358 263.119C428.383 273.785 383.705 277.982 338.933 283.633C362.9 288.634 387.638 289.896 411.971 287.385C422.027 286.357 432.015 284.67 442.127 284.523C478.007 283.923 511.393 302.298 540.822 322.824C530.559 323.29 521.011 326.996 510.811 327.942C498.382 329.093 485.976 330.38 473.555 331.383C448.639 333.386 423.669 334.76 398.686 335.271C348.764 336.309 298.701 333.931 249.315 326.514C248.857 326.459 248.385 326.374 247.958 326.306C159.483 312.839 72.5697 282.505 0 230.122C37.0612 229.155 68.3916 219.228 105.453 218.261C146.239 217.2 188.02 215.925 225.964 200.956C271.253 183.129 311.013 147.451 353.731 124.11Z" fill="black"/>
<path d="M367.496 55.5902C358.565 68.9891 352.045 84.023 348.332 99.6866C347.518 103.155 346.77 106.775 344.605 109.634C342.986 111.748 340.733 113.233 338.509 114.704C315.994 129.429 293.888 145.934 270.446 159.105C282.113 123.946 309.115 94.0907 338.879 72.7806C347.596 66.5739 357.421 59.4156 367.496 55.5902Z" fill="black"/>
<path d="M142.891 269.109C161.884 279.926 181.169 290.833 202.346 296.247C231.052 303.575 261.272 300.359 290.674 296.593C277.093 276.873 256.356 262.866 234.044 254.249C211.732 245.633 187.762 242.046 163.925 240.103C153.599 239.256 119.961 234.754 112.577 244.621C106.044 253.358 136.354 265.388 142.891 269.109Z" fill="#EBFF00"/>
<path d="M269.822 235.621C284.85 247.903 304.457 253.454 323.824 254.691C343.191 255.927 362.554 253.145 381.738 250.368C368.091 240.856 354.287 231.231 338.813 225.191C330.1 221.797 321.012 219.545 311.906 217.335C296.927 213.689 281.965 209.999 266.986 206.353C238.97 199.449 261.163 228.509 269.822 235.621Z" fill="#EBFF00"/>
<path d="M354.336 209.219C383.089 211.058 411.471 218.889 437.121 232.034C420.747 234.861 405.67 240.095 389.406 234.905C375.365 230.417 362.75 221.362 354.336 209.219Z" fill="#EBFF00"/>
<path d="M386.288 318.368C367.224 324.679 347.374 323.833 328.615 316.646C323.411 314.665 318.059 311.842 315.504 306.865C340.361 305.395 363.534 308.314 386.288 318.368Z" fill="#EBFF00"/>
<path d="M362.657 194.818C383.764 194.974 404.893 188.746 422.535 177.147C402.875 168.467 380.34 168.025 359.339 172.459C338.382 176.911 318.723 185.943 299.821 195.805C321.278 192.006 340.908 194.686 362.657 194.818Z" fill="#EBFF00"/>
<path d="M204.408 230.809C214.738 232.669 225.346 232.162 235.849 231.664C232.642 221.174 225.453 211.94 216.015 206.289C215.437 205.96 214.256 205.241 213.566 205.069C213.566 205.069 212.294 205.476 210.961 205.909C204.299 208.001 196.01 209.93 190.121 211.215C185.889 212.145 175.757 213.75 175.757 213.75C178.58 222.269 196.907 229.462 204.408 230.809Z" fill="#EBFF00"/>
<path d="M239.517 256.514C236.437 258.683 231.468 262.758 228.419 264.913C222.816 268.864 217.031 272.894 210.389 274.615C198.57 277.675 186.27 272.94 174.977 268.274C173.453 259.662 171.298 249.26 169.805 240.635C175.238 240.887 194.024 243.208 199.492 244.459C217.553 248.616 231.874 252.331 239.517 256.514Z" fill="white"/>
<path d="M387.03 113.338C387.03 113.338 386.484 120.348 386.181 119.9C383.166 124.974 379.815 128.021 375.907 132.541C370.046 139.32 361.596 144.47 352.879 146.584C344.163 148.697 330.866 145.842 324.089 142.153C324.089 142.153 351.799 121.951 366.734 119.314C370.039 118.75 374.935 117.098 374.935 117.098L387.03 113.338Z" fill="#EBFF00"/>
<path d="M329.968 222.145C329.811 222.032 330.194 221.829 330.273 222.012C330.352 222.195 330.192 222.41 330.035 222.55C325.71 226.273 321.415 229.983 317.103 233.736C316.29 234.451 315.386 235.205 314.322 235.34C313.572 235.448 312.795 235.242 312.061 235.053C306.636 233.566 301.225 232.109 295.8 230.622C295.184 230.455 294.525 230.27 294.043 229.827C293.421 229.227 293.247 228.324 293.13 227.47C292.376 222.472 291.698 217.732 290.944 212.734C291.061 212.502 291.335 212.383 291.584 212.456C294.308 212.977 296.76 213.87 299.505 214.274C300.819 214.464 302.156 214.79 303.479 215.086C312.579 217.116 321.22 218.839 329.968 222.145Z" fill="white"/>
<path d="M365.5 119.737C365.617 119.505 365.617 119.505 365.617 119.505C365.761 119.587 365.736 119.78 365.728 119.928C365.052 124.133 364.359 128.382 363.682 132.587C363.564 133.399 363.397 134.268 362.859 134.864C362.463 135.289 361.958 135.544 361.41 135.782C357.591 137.583 353.803 139.37 349.985 141.171C349.527 141.369 349.083 141.598 348.595 141.556C347.957 141.506 347.415 141.09 346.933 140.647C344.109 138.141 341.245 135.543 338.433 133.068C338.433 133.068 338.712 132.875 338.838 132.748C340.172 131.481 341.946 130.06 343.717 128.966C344.578 128.447 346.767 127.063 347.629 126.545C353.369 123.078 358.297 120.579 365.5 119.737Z" fill="white"/>
<path d="M469.406 317.179C464.832 317.822 459.387 318.626 454.813 319.269C449.459 320.033 444.284 319.959 438.879 320.021C425.478 320.181 411.683 313.921 400.883 305.963C401.132 306.036 404.511 305.476 404.729 305.563C414.271 303.598 427.967 301.861 444.307 303.468C462.114 305.2 476.187 310.181 485.484 314.336C482.055 314.446 472.842 316.667 469.406 317.179Z" fill="#EBFF00"/>
</svg>
